<svg width="738" height="683" viewBox="0 0 738 683" fill="none" xmlns="http://www.w3.org/2000/svg">
<path d="M367.105 407.482L367.051 407.401C366.39 406.406 365.771 405.497 365.164 404.646C364.704 404.17 364.426 404.056 364.398 404.044L364.397 404.044L364.395 404.043C364.356 404.026 364.255 403.984 363.975 404.006C363.447 404.049 362.248 404.375 360.858 405.502C360.668 406.061 360.649 406.408 360.645 406.598C360.639 407.006 360.708 408.059 361.669 410.069L362.476 411.669L362.481 411.679C371.787 430.162 383.945 446.764 398.943 459.882C400.138 460.907 401.398 461.989 402.662 463.098L402.672 463.106C412.334 471.585 422.049 478.753 432.662 484.464L434.247 485.309L434.271 485.322L434.295 485.335C448.718 493.074 463.446 498.869 479.103 502.67L481.285 503.186L481.296 503.188L481.307 503.191C495.432 506.546 510.656 507.308 526.751 507.022C528.436 506.99 530.141 506.96 531.854 506.934L531.863 506.934L531.872 506.934C532.996 506.918 534.119 506.902 535.243 506.886C535.243 506.886 535.244 506.886 535.244 506.886L536.941 506.861L536.944 506.861C540.319 506.813 543.587 506.751 546.813 506.64L367.105 407.482ZM367.105 407.482L367.16 407.563M367.105 407.482L367.16 407.563M367.16 407.563L368.174 409.058C370.275 412.184 372.309 415.449 374.407 418.918L374.409 418.921M367.16 407.563L374.409 418.921M374.409 418.921C405.49 470.302 459.527 499.439 518.581 500.308C520.095 500.337 521.61 500.367 523.125 500.397L523.145 500.398M374.409 418.921L523.145 500.398M639.15 526.202C640.405 526.212 641.66 526.225 642.915 526.237C652.839 526.336 662.776 526.436 672.667 525.577L639.15 526.202ZM639.15 526.202C634.364 526.162 629.577 526.137 624.79 526.116L639.15 526.202ZM670.915 506.658L673.113 506.44L673.116 506.44C674.661 506.288 675.596 506.148 676.216 506.021C676.341 505.996 676.444 505.972 676.527 505.952C677.019 505.007 677.121 504.114 676.863 503.113C676.245 502.174 675.822 501.829 675.697 501.737C675.61 501.672 675.529 501.625 675.405 501.577C675.288 501.531 675.034 501.445 674.585 501.378L673.045 501.222L673.011 501.219L672.977 501.215C672.616 501.177 672.272 501.141 671.942 501.107C664.487 500.323 664.387 500.312 641.829 500.424L670.915 506.658ZM670.915 506.658C662.034 507.422 653.089 507.335 643.085 507.237C641.844 507.225 640.587 507.213 639.311 507.202L639.306 507.202C634.488 507.163 629.678 507.137 624.883 507.116C623.268 507.107 621.645 507.093 619.989 507.077L619.954 507.077L619.919 507.076L616.957 507.059L616.909 507.059L614.836 507.041C614.371 507.013 613.697 506.981 613.04 506.979C611.963 506.977 609.277 507.016 606.14 508.094C602.575 509.319 600.103 511.279 598.58 512.761C597.917 513.406 597.415 513.98 597.153 514.285C596.897 514.584 596.652 514.884 596.577 514.976L593.533 518.689L592.618 523.402C592.277 525.158 592.013 526.841 591.794 528.367C585.349 571.192 564.625 600.4 525.088 616.566C484.619 632.359 436.687 628.715 403.828 602.819C399.816 599.563 395.927 596.129 392.098 592.509L392.009 592.425L391.92 592.342L389.864 590.448C382.401 583.299 373.37 571.825 366.937 559.439C360.544 547.13 358.266 536.934 359.203 530.19C359.601 529.194 359.897 528.703 360.053 528.478C360.145 528.347 360.196 528.297 360.215 528.279C360.233 528.262 360.302 528.197 360.48 528.088L360.705 527.951L360.925 527.808L361.085 527.704C361.307 527.653 361.709 527.59 362.305 527.612C362.536 527.62 362.761 527.64 362.977 527.67C363.459 528.539 364.015 529.742 364.931 531.867L364.958 531.931L364.986 531.995L365.887 534.044C368.005 538.939 369.917 544.013 371.951 549.524L371.964 549.559L371.977 549.594C376.576 561.911 382.512 572.884 392.566 583.353C393.069 583.887 393.367 584.205 393.597 584.453C393.808 584.682 393.866 584.75 393.872 584.758L393.873 584.759L393.875 584.761C393.923 584.817 393.996 584.903 394.931 586.139L395.224 586.526L395.536 586.897C408.908 602.807 427.578 611.559 445.771 615.748C464.023 619.952 483.23 619.928 499.747 617.039L499.923 617.009L500.098 616.975C529.439 611.274 565.918 592.329 578.38 556.91L578.475 556.642L578.561 556.372C580.31 550.88 581.827 545.376 583.165 539.884L583.483 539.076L583.63 538.704L583.761 538.325L583.807 538.192C584.018 537.581 584.305 536.752 584.545 535.976C584.84 535.02 585.191 533.752 585.44 532.228C585.85 529.72 585.805 527.277 585.785 526.183C585.783 526.073 585.782 525.976 585.781 525.895L585.628 513.647L574.41 508.73C566.753 505.374 558.11 506.247 556.506 506.409C556.463 506.414 556.426 506.417 556.393 506.421C554.986 506.443 553.582 506.466 552.179 506.487L552.137 506.488L552.095 506.489C550.291 506.525 548.518 506.581 546.819 506.64L670.915 506.658ZM523.145 500.398L523.165 500.398M523.145 500.398L523.165 500.398M523.165 500.398C547.008 500.821 570.906 500.701 594.544 500.582C600.651 500.551 606.74 500.521 612.807 500.5C619.136 500.478 625.466 500.462 631.796 500.454H631.798M523.165 500.398L631.798 500.454M631.798 500.454C635.13 500.449 638.475 500.441 641.827 500.424L631.798 500.454Z" fill="black" stroke="black" stroke-width="38"/>
<path d="M485.156 234.203L485.344 234.371L485.536 234.535L486.924 235.718C491.082 239.609 494.653 246.177 497.686 254.816L497.701 254.859L497.716 254.901L498.405 256.836C502.75 271.788 497.95 289.69 486.557 302.321C475.156 314.388 457.629 319.557 441.095 315.792C431.953 313.387 424.366 308.842 417.07 301.664L417.023 301.618L416.975 301.572L415.1 299.752C404.919 289.061 401.402 271.462 405.927 255.011C411.838 237.699 424.402 225.774 441.174 221.825C458.119 219.075 472.875 223.166 485.156 234.203ZM412.13 253.27L411.729 254.19L411.427 255.148C406.759 269.954 409.894 284.428 419.088 296.046L419.594 296.685L420.153 297.279C425.171 302.609 431.197 306.837 438.417 309.253C445.586 311.652 452.811 311.888 459.713 310.898L460.805 310.741L461.872 310.46C476.204 306.671 486.706 296.573 491.859 283.537L492.287 282.454L492.58 281.327C496.028 268.049 494.326 252.107 483.321 239.772L482.389 238.727L481.314 237.83C470.491 228.802 456.625 224.979 443.295 227.625C429.728 230.319 418.146 239.463 412.13 253.27Z" fill="black" stroke="black" stroke-width="38"/>
<mask id="path-3-inside-1_1_307" fill="white">
<path d="M209.297 38.0032C212.075 38.011 214.854 38.0085 217.632 38.0076C222.99 38.0076 228.347 38.0176 233.705 38.0318C238.035 38.0433 242.365 38.0516 246.695 38.0577C263.461 38.0823 280.226 38.1349 296.992 38.2055C298.68 38.2125 300.368 38.2193 302.055 38.2259C315.574 38.2791 329.093 38.3573 342.611 38.4706C345.152 38.4903 347.692 38.5058 350.233 38.52C367.924 38.6244 385.259 38.9593 402.765 41.7694C403.364 41.862 403.963 41.9546 404.581 42.05C407.719 42.541 410.829 43.1183 413.937 43.7701C414.842 43.9573 415.747 44.1445 416.679 44.3374C453.197 52.1524 488.529 67.7495 517.485 91.5643C517.959 91.9526 518.433 92.3408 518.921 92.7409C537.123 107.73 537.123 107.73 544.383 116.406C545.87 118.154 547.422 119.824 548.996 121.494C555.067 127.983 560.337 135.031 565.507 142.248C565.893 142.784 566.278 143.321 566.675 143.873C590.273 177.073 604.294 216.673 609.083 256.954C609.158 257.533 609.234 258.112 609.311 258.708C610.192 266.226 610.176 273.761 610.254 281.32C610.272 282.838 610.291 284.355 610.31 285.873C610.36 289.906 610.404 293.939 610.446 297.971C610.473 300.479 610.501 302.987 610.529 305.495C611.075 354.217 611.075 354.217 610.885 374.478C610.864 376.807 610.845 379.136 610.826 381.465C610.778 387.501 610.71 393.537 610.627 399.573C610.597 401.721 610.573 403.869 610.554 406.017C610.525 409.007 610.478 411.995 610.428 414.984C610.422 415.867 610.416 416.75 610.41 417.659C610.193 428.038 608.146 436.523 598.69 441.74C588.287 446.493 581.192 444.097 572.184 437.853C568.696 434.519 567.661 430.734 567.135 426.08C567.064 425.498 566.993 424.916 566.92 424.316C566.175 417.671 566.136 411.04 566.141 404.36C566.136 402.971 566.13 401.582 566.123 400.192C566.11 397.227 566.102 394.263 566.098 391.298C566.092 386.589 566.073 381.88 566.052 377.171C566.008 367.165 565.979 357.158 565.952 347.152C565.922 336.365 565.89 325.577 565.842 314.79C565.824 310.886 565.811 306.981 565.806 303.076C565.727 244.289 552.839 186.156 508.592 144.027C507.877 143.311 507.161 142.596 506.424 141.859C506.068 141.506 505.711 141.153 505.344 140.789C504.448 139.886 503.568 138.966 502.697 138.039C469.419 103.306 415.996 83.3863 368.574 83.4366C367.777 83.434 366.981 83.4314 366.16 83.4286C363.517 83.421 360.875 83.4196 358.232 83.4182C356.326 83.4141 354.42 83.4097 352.514 83.4049C347.355 83.3933 342.195 83.3874 337.035 83.3835C333.806 83.3811 330.576 83.3773 327.347 83.3733C318.383 83.3625 309.419 83.3533 300.454 83.3503C299.882 83.3501 299.31 83.3499 298.72 83.3497C297.86 83.3494 297.86 83.3494 296.982 83.3491C295.82 83.3487 294.659 83.3483 293.497 83.3479C292.92 83.3477 292.344 83.3475 291.75 83.3473C282.421 83.3438 273.092 83.3283 263.763 83.3076C254.156 83.2864 244.548 83.2754 234.941 83.2744C229.559 83.2736 224.176 83.2686 218.794 83.2523C213.727 83.2371 208.66 83.2358 203.592 83.2435C201.743 83.2442 199.893 83.2404 198.043 83.2316C176.384 83.1341 155.34 85.3918 143.109 105.916C134.725 121.072 129.683 138.371 123.928 154.646C118.048 171.243 111.903 187.741 105.746 204.237C103.061 211.43 100.389 218.628 97.734 225.832C97.5276 226.392 97.3213 226.951 97.1087 227.527C95.8672 230.893 94.6342 234.263 93.4123 237.636C93.0348 238.676 92.6551 239.714 92.2729 240.752C88.8914 249.943 85.6148 259.605 85.8396 269.514C85.8473 270.111 85.855 270.708 85.863 271.322C86.397 289.614 97.5685 304.332 111.074 315.641C111.967 316.401 112.86 317.162 113.752 317.923C118.214 321.722 122.693 325.47 127.303 329.09C159.898 355.803 163.979 383.824 163.524 423.974C163.125 460.026 166.855 495.317 200.893 515.71C214.793 523.753 236.404 532.5 252.167 524.768C257.6 521.442 261.074 517.135 261.629 510.689C261.692 510.085 261.755 509.482 261.82 508.86C262.698 499.131 262.504 489.319 262.485 479.559C262.48 476.496 262.487 473.432 262.492 470.368C262.5 465.071 262.501 459.774 262.499 454.477C262.496 446.793 262.507 439.11 262.521 431.426C262.544 418.923 262.562 406.419 262.574 393.916C262.575 392.796 262.575 392.796 262.576 391.654C262.586 381.08 262.591 370.505 262.593 359.931C262.593 359.188 262.594 358.444 262.594 357.678C262.594 356.935 262.594 356.192 262.594 355.427C262.598 342.977 262.615 330.527 262.643 318.077C262.659 310.427 262.665 302.778 262.655 295.128C262.65 289.871 262.657 284.614 262.674 279.357C262.683 276.339 262.687 273.322 262.675 270.304C262.604 251.073 264.018 232.023 269.592 213.495C269.858 212.586 270.123 211.677 270.397 210.741C277.057 188.567 287.231 167.722 301.384 149.362C301.915 148.669 301.915 148.669 302.457 147.962C304.343 145.522 306.293 143.149 308.316 140.821C309.084 139.933 309.843 139.037 310.596 138.135C318.219 129.038 326.677 120.517 339.624 122.686C347.756 124.501 353.982 129.814 356.521 137.802C358.394 146.765 356.387 152.198 350.796 159.143C350.219 159.879 350.219 159.879 349.631 160.63C347.523 163.309 345.374 165.951 343.206 168.58C316.778 200.759 307.153 236.582 307.251 277.746C307.255 280.824 307.244 283.903 307.234 286.981C307.22 292.295 307.216 297.609 307.217 302.923C307.219 310.622 307.205 318.32 307.186 326.018C307.157 338.534 307.137 351.05 307.126 363.567C307.125 364.686 307.125 364.686 307.124 365.828C307.121 368.851 307.118 371.875 307.116 374.899C307.108 383.231 307.098 391.563 307.088 399.896C307.087 400.642 307.086 401.389 307.085 402.158C307.069 414.639 307.046 427.119 307.018 439.599C307.002 447.273 306.992 454.947 306.991 462.62C306.99 467.879 306.983 473.138 306.971 478.398C306.965 481.423 306.961 484.449 306.965 487.474C307.002 517.58 303.68 546.176 275.251 562.861C244.745 579.873 206.775 570.907 177.901 554.165C136.441 529.094 119.236 486.112 118.803 439.552C118.797 438.883 118.79 438.215 118.784 437.527C118.729 431.228 118.696 424.93 118.671 418.631C118.657 415.153 118.63 411.675 118.596 408.198C118.586 406.891 118.58 405.584 118.58 404.278C118.579 391.536 117.5 380.975 107.669 371.924C104.511 368.43 101.201 365.64 97.6784 362.268C94.0682 358.87 90.4301 355.59 86.5621 352.487C81.1692 348.147 76.0894 343.509 71.0549 338.76C69.9492 337.727 69.9492 337.727 68.8212 336.673C47.7547 316.395 38.208 285.692 41.7079 256.954C41.7729 256.407 41.838 255.859 41.905 255.294C42.9086 247.543 45.0724 240.26 47.5717 232.87C47.8849 231.938 48.1982 231.006 48.5209 230.046C51.8396 220.241 55.3958 210.529 58.9937 200.824C59.6875 198.945 60.3811 197.066 61.0743 195.187C62.5011 191.321 63.9299 187.456 65.3604 183.592C67.4504 177.946 69.5345 172.298 71.6177 166.649C83.4943 134.455 83.4943 134.455 89.0494 119.758C90.047 117.115 91.0212 114.466 91.9674 111.804C96.8602 98.1294 102.491 84.0585 111.963 72.8912C112.891 71.765 112.891 71.765 113.839 70.6161C138.848 41.486 173.003 37.8753 209.297 38.0032Z"/>
</mask>
<path d="M209.297 38.0032C212.075 38.011 214.854 38.0085 217.632 38.0076C222.99 38.0076 228.347 38.0176 233.705 38.0318C238.035 38.0433 242.365 38.0516 246.695 38.0577C263.461 38.0823 280.226 38.1349 296.992 38.2055C298.68 38.2125 300.368 38.2193 302.055 38.2259C315.574 38.2791 329.093 38.3573 342.611 38.4706C345.152 38.4903 347.692 38.5058 350.233 38.52C367.924 38.6244 385.259 38.9593 402.765 41.7694C403.364 41.862 403.963 41.9546 404.581 42.05C407.719 42.541 410.829 43.1183 413.937 43.7701C414.842 43.9573 415.747 44.1445 416.679 44.3374C453.197 52.1524 488.529 67.7495 517.485 91.5643C517.959 91.9526 518.433 92.3408 518.921 92.7409C537.123 107.73 537.123 107.73 544.383 116.406C545.87 118.154 547.422 119.824 548.996 121.494C555.067 127.983 560.337 135.031 565.507 142.248C565.893 142.784 566.278 143.321 566.675 143.873C590.273 177.073 604.294 216.673 609.083 256.954C609.158 257.533 609.234 258.112 609.311 258.708C610.192 266.226 610.176 273.761 610.254 281.32C610.272 282.838 610.291 284.355 610.31 285.873C610.36 289.906 610.404 293.939 610.446 297.971C610.473 300.479 610.501 302.987 610.529 305.495C611.075 354.217 611.075 354.217 610.885 374.478C610.864 376.807 610.845 379.136 610.826 381.465C610.778 387.501 610.71 393.537 610.627 399.573C610.597 401.721 610.573 403.869 610.554 406.017C610.525 409.007 610.478 411.995 610.428 414.984C610.422 415.867 610.416 416.75 610.41 417.659C610.193 428.038 608.146 436.523 598.69 441.74C588.287 446.493 581.192 444.097 572.184 437.853C568.696 434.519 567.661 430.734 567.135 426.08C567.064 425.498 566.993 424.916 566.92 424.316C566.175 417.671 566.136 411.04 566.141 404.36C566.136 402.971 566.13 401.582 566.123 400.192C566.11 397.227 566.102 394.263 566.098 391.298C566.092 386.589 566.073 381.88 566.052 377.171C566.008 367.165 565.979 357.158 565.952 347.152C565.922 336.365 565.89 325.577 565.842 314.79C565.824 310.886 565.811 306.981 565.806 303.076C565.727 244.289 552.839 186.156 508.592 144.027C507.877 143.311 507.161 142.596 506.424 141.859C506.068 141.506 505.711 141.153 505.344 140.789C504.448 139.886 503.568 138.966 502.697 138.039C469.419 103.306 415.996 83.3863 368.574 83.4366C367.777 83.434 366.981 83.4314 366.16 83.4286C363.517 83.421 360.875 83.4196 358.232 83.4182C356.326 83.4141 354.42 83.4097 352.514 83.4049C347.355 83.3933 342.195 83.3874 337.035 83.3835C333.806 83.3811 330.576 83.3773 327.347 83.3733C318.383 83.3625 309.419 83.3533 300.454 83.3503C299.882 83.3501 299.31 83.3499 298.72 83.3497C297.86 83.3494 297.86 83.3494 296.982 83.3491C295.82 83.3487 294.659 83.3483 293.497 83.3479C292.92 83.3477 292.344 83.3475 291.75 83.3473C282.421 83.3438 273.092 83.3283 263.763 83.3076C254.156 83.2864 244.548 83.2754 234.941 83.2744C229.559 83.2736 224.176 83.2686 218.794 83.2523C213.727 83.2371 208.66 83.2358 203.592 83.2435C201.743 83.2442 199.893 83.2404 198.043 83.2316C176.384 83.1341 155.34 85.3918 143.109 105.916C134.725 121.072 129.683 138.371 123.928 154.646C118.048 171.243 111.903 187.741 105.746 204.237C103.061 211.43 100.389 218.628 97.734 225.832C97.5276 226.392 97.3213 226.951 97.1087 227.527C95.8672 230.893 94.6342 234.263 93.4123 237.636C93.0348 238.676 92.6551 239.714 92.2729 240.752C88.8914 249.943 85.6148 259.605 85.8396 269.514C85.8473 270.111 85.855 270.708 85.863 271.322C86.397 289.614 97.5685 304.332 111.074 315.641C111.967 316.401 112.86 317.162 113.752 317.923C118.214 321.722 122.693 325.47 127.303 329.09C159.898 355.803 163.979 383.824 163.524 423.974C163.125 460.026 166.855 495.317 200.893 515.71C214.793 523.753 236.404 532.5 252.167 524.768C257.6 521.442 261.074 517.135 261.629 510.689C261.692 510.085 261.755 509.482 261.82 508.86C262.698 499.131 262.504 489.319 262.485 479.559C262.48 476.496 262.487 473.432 262.492 470.368C262.5 465.071 262.501 459.774 262.499 454.477C262.496 446.793 262.507 439.11 262.521 431.426C262.544 418.923 262.562 406.419 262.574 393.916C262.575 392.796 262.575 392.796 262.576 391.654C262.586 381.08 262.591 370.505 262.593 359.931C262.593 359.188 262.594 358.444 262.594 357.678C262.594 356.935 262.594 356.192 262.594 355.427C262.598 342.977 262.615 330.527 262.643 318.077C262.659 310.427 262.665 302.778 262.655 295.128C262.65 289.871 262.657 284.614 262.674 279.357C262.683 276.339 262.687 273.322 262.675 270.304C262.604 251.073 264.018 232.023 269.592 213.495C269.858 212.586 270.123 211.677 270.397 210.741C277.057 188.567 287.231 167.722 301.384 149.362C301.915 148.669 301.915 148.669 302.457 147.962C304.343 145.522 306.293 143.149 308.316 140.821C309.084 139.933 309.843 139.037 310.596 138.135C318.219 129.038 326.677 120.517 339.624 122.686C347.756 124.501 353.982 129.814 356.521 137.802C358.394 146.765 356.387 152.198 350.796 159.143C350.219 159.879 350.219 159.879 349.631 160.63C347.523 163.309 345.374 165.951 343.206 168.58C316.778 200.759 307.153 236.582 307.251 277.746C307.255 280.824 307.244 283.903 307.234 286.981C307.22 292.295 307.216 297.609 307.217 302.923C307.219 310.622 307.205 318.32 307.186 326.018C307.157 338.534 307.137 351.05 307.126 363.567C307.125 364.686 307.125 364.686 307.124 365.828C307.121 368.851 307.118 371.875 307.116 374.899C307.108 383.231 307.098 391.563 307.088 399.896C307.087 400.642 307.086 401.389 307.085 402.158C307.069 414.639 307.046 427.119 307.018 439.599C307.002 447.273 306.992 454.947 306.991 462.62C306.99 467.879 306.983 473.138 306.971 478.398C306.965 481.423 306.961 484.449 306.965 487.474C307.002 517.58 303.68 546.176 275.251 562.861C244.745 579.873 206.775 570.907 177.901 554.165C136.441 529.094 119.236 486.112 118.803 439.552C118.797 438.883 118.79 438.215 118.784 437.527C118.729 431.228 118.696 424.93 118.671 418.631C118.657 415.153 118.63 411.675 118.596 408.198C118.586 406.891 118.58 405.584 118.58 404.278C118.579 391.536 117.5 380.975 107.669 371.924C104.511 368.43 101.201 365.64 97.6784 362.268C94.0682 358.87 90.4301 355.59 86.5621 352.487C81.1692 348.147 76.0894 343.509 71.0549 338.76C69.9492 337.727 69.9492 337.727 68.8212 336.673C47.7547 316.395 38.208 285.692 41.7079 256.954C41.7729 256.407 41.838 255.859 41.905 255.294C42.9086 247.543 45.0724 240.26 47.5717 232.87C47.8849 231.938 48.1982 231.006 48.5209 230.046C51.8396 220.241 55.3958 210.529 58.9937 200.824C59.6875 198.945 60.3811 197.066 61.0743 195.187C62.5011 191.321 63.9299 187.456 65.3604 183.592C67.4504 177.946 69.5345 172.298 71.6177 166.649C83.4943 134.455 83.4943 134.455 89.0494 119.758C90.047 117.115 91.0212 114.466 91.9674 111.804C96.8602 98.1294 102.491 84.0585 111.963 72.8912C112.891 71.765 112.891 71.765 113.839 70.6161C138.848 41.486 173.003 37.8753 209.297 38.0032Z" fill="black" stroke="black" stroke-width="76" mask="url(#path-3-inside-1_1_307)"/>
</svg>
